<?xml version="1.0" standalone="no"?>
<!DOCTYPE svg PUBLIC "-//W3C//DTD SVG 20010904//EN"
 "http://www.w3.org/TR/2001/REC-SVG-20010904/DTD/svg10.dtd">
<svg version="1.0" xmlns="http://www.w3.org/2000/svg"
 width="1024.000000pt" height="1024.000000pt" viewBox="0 0 1024.000000 1024.000000"
 preserveAspectRatio="xMidYMid meet">
<metadata>
Created by potrace 1.11, written by Peter Selinger 2001-2013
</metadata>
<g transform="translate(0.000000,1024.000000) scale(0.100000,-0.100000)"
fill="#000000" stroke="none">
<path d="M6226 5974 c-223 -40 -390 -152 -469 -315 -49 -98 -59 -166 -43 -281
17 -130 112 -240 276 -323 56 -28 163 -69 210 -81 313 -78 384 -102 428 -143
83 -80 21 -198 -117 -220 -214 -34 -362 44 -431 227 l-13 33 -194 -1 -195 -2
6 -55 c3 -30 8 -58 10 -62 3 -4 7 -20 10 -35 3 -15 22 -62 43 -104 28 -59 57
-96 118 -157 148 -146 320 -207 570 -200 380 10 625 212 625 515 0 262 -160
408 -565 515 -154 41 -269 77 -284 89 -8 6 -16 10 -18 8 -12 -9 -67 35 -79 63
-57 137 247 238 408 136 54 -34 100 -91 102 -126 0 -14 3 -25 6 -26 3 0 92 -2
198 -2 l194 -2 -6 55 c-23 235 -223 440 -480 491 -82 17 -225 18 -310 3z"/>
<path d="M785 5782 c-94 -95 -173 -180 -177 -187 -7 -11 41 -13 255 -13 144 0
272 -1 285 -1 l22 -1 0 -650 0 -649 199 0 198 0 0 645 c0 354 3 647 7 651 3 3
131 6 285 6 252 -1 280 0 283 15 2 10 4 94 3 187 l0 170 -596 1 -595 1 -169
-175z"/>
<path d="M3300 5119 l0 -838 625 0 625 0 0 188 0 188 -425 -1 c-276 -1 -425 2
-426 9 -5 39 -3 271 2 275 4 3 165 5 358 4 l351 -1 -2 176 -3 176 -345 1
c-190 1 -350 2 -355 3 -7 1 -10 54 -10 141 -1 119 2 140 15 141 8 0 201 1 428
1 l412 0 0 188 0 187 -625 0 -625 0 0 -838z"/>
<path d="M8069 5926 c-1 -37 -1 -316 0 -332 1 -8 74 -11 249 -12 136 0 265 -1
287 -1 l40 -1 0 -647 0 -648 194 -3 c114 -1 197 1 200 7 3 5 6 298 6 650 l0
641 25 1 c14 0 62 1 106 1 l82 -1 163 168 c90 93 172 177 182 188 17 20 12 20
-758 20 l-775 0 -1 -31z"/>
</g>
</svg>
